<?xml version="1.0" encoding="UTF-8" standalone="no"?>
<!-- Created with ltspice2svg: version = 0.8.2 (2020-02-05) -->
<!-- Tested on LTspice XVII -->
<!-- WARNING: .asc file is UTF16 encoded which may cause problems -->
<svg
	xmlns:dc="http://purl.org/dc/elements/1.1/"
	xmlns:cc="http://creativecommons.org/ns#"
	xmlns:rdf="http://www.w3.org/1999/02/22-rdf-syntax-ns#"
	xmlns:svg="http://www.w3.org/2000/svg"
	xmlns="http://www.w3.org/2000/svg"
	xmlns:xlink="http://www.w3.org/1999/xlink"
	xmlns:sodipodi="http://sodipodi.sourceforge.net/DTD/sodipodi-0.dtd"
	xmlns:inkscape="http://www.inkscape.org/namespaces/inkscape"
	width = "1504" height = "896"
	viewBox="-224 -32 1504 896"
	version="1.1"
	id="svg8"
	inkscape:version="0.92.2 5c3e80d, 2017-08-06"
	sodipodi:docname="test.svg">
	<defs
		id="defs9" />
	<sodipodi:namedview
		 id="base"
		 pagecolor="#ffffff"
		 bordercolor="#666666"
		 borderopacity="1.0"
		 inkscape:pageopacity="0.0"
		 inkscape:pageshadow="2"
		 inkscape:zoom="1.0"
		 inkscape:cx="1024"
		 inkscape:cy="1024"
		 inkscape:document-units="px"
		 inkscape:current-layer="layer1"
		 showgrid="true"
		 inkscape:window-width="1024"
		 inkscape:window-height="1024"
		 inkscape:window-x="1024"
		 inkscape:window-y="1024"
		 inkscape:window-maximized="0"
		 showguides="true"
		 units="px"
		 fit-margin-top="0"
		 fit-margin-left="0"
		 fit-margin-right="0"
		 fit-margin-bottom="0"
		 inkscape:snap-to-guides="false"
		 inkscape:snap-grids="true"
		 inkscape:snap-nodes="false"
		 inkscape:object-nodes="true"
		 inkscape:object-paths="false"
		 inkscape:snap-bbox="true"
		 inkscape:snap-bbox-midpoints="false"
		 inkscape:bbox-nodes="true">
	
		<inkscape:grid
		   type="xygrid"
		   id="grid815"
		   spacingx="16"
		   spacingy="16"
		   empspacing="1"
		   dotted="true"
		   units="px"
		   originx="0"
		   originy="0"
		   enabled="true" />
	  </sodipodi:namedview>
	  <metadata
		 id="metadata5">
		<rdf:RDF>
		  <cc:Work
			 rdf:about="">
			<dc:format>image/svg+xml</dc:format>
			<dc:type
			   rdf:resource="http://purl.org/dc/dcmitype/StillImage" />
			<dc:title />
		  </cc:Work>
		</rdf:RDF>
	  </metadata>
	
<style>text {font-family:Arial;}</style>

<defs>
	<g id="svg_supply">
      <polygon points="-6,0 0,-15 6,0" style="fill:black;fill-opacity:1;stroke:black;stroke-width:2.5;stroke-linecap:round;stroke-linejoin:round;stroke-miterlimit:0;stroke-dasharray:none;stroke-dashoffset:0;stroke-opacity:1" />
     <rect x="-32" y="-32" width="160" height="160" style="fill:none;stroke:none" />
     </g>
</defs>
<defs>
    <g id="svg_port">
      <circle cx="0" cy="0" r="6" style="stroke:black; fill:black"/>
      <circle cx="0" cy="0" r="3" style="stroke:white; fill:white"/>
     <rect x="-32" y="-32" width="160" height="160" style="fill:none;stroke:none" />
     </g>
</defs>
<defs>
    <g id="svg_dot">
      <circle cx="0" cy="0" r="5" style="stroke:#000000; fill:#000000"/>
     <rect x="-32" y="-32" width="160" height="160" style="fill:none;stroke:none" />
     </g>
</defs>
<defs>
     <g id="svg_gnd">
      <path 
     d="M 0,0 0,8
     M -14,8 14,8
     M -8,14 8,14
     M -2,20 2,20"
     style="fill:none;fill-opacity:1;stroke:#000000;stroke-width:2.5;stroke-linecap:round;stroke-linejoin:round;stroke-miterlimit:0;stroke-dasharray:none;stroke-dashoffset:0;stroke-opacity:1"
     />
     <rect x="-32" y="-32" width="160" height="160" style="fill:none;stroke:none" />
     </g>
</defs>
<defs>
    <g id="svg_jumpCirc">
      <circle cx="0" cy="0" r="6" style="stroke:#000000;stroke-width:2.5;fill:#ffffff"/>
      <rect x="-8" y="1.25" width="16" height="7" style="fill:#ffffff;stroke:none"/>
     <rect x="-32" y="-32" width="160" height="160" style="fill:none;stroke:none" />
     </g>
</defs>
<defs>
    <g id="svg_jumpLine">
      <path 
     d="M -12,0 12,0"
     style="fill:none;fill-opacity:1;stroke:#000000;stroke-width:2.5;stroke-linecap:round;stroke-linejoin:round;stroke-miterlimit:0;stroke-dasharray:none;stroke-dashoffset:0;stroke-opacity:1"
     />
     <rect x="-32" y="-32" width="160" height="160" style="fill:none;stroke:none" />
     </g>
</defs>
<defs>
	  <g id="svg_nmos">
		  <path 
		 d="M 0,48 16,48
		 M 64,28 28,28
		 M 64,68 28,68
		 M 64,68 64,80
		 M 64,28 64,16" 
		 style="fill:none;fill-opacity:1;stroke:#000000;stroke-width:2.5;stroke-linecap:round;stroke-linejoin:round;stroke-miterlimit:0;stroke-dasharray:none;stroke-dashoffset:0;stroke-opacity:1"
		   />
		   <path 
		 d="M 16,70 16,24
		 M 28,81 28,15" 
		 style="fill:none;fill-opacity:1;stroke:#000000;stroke-width:6;stroke-linecap:round;stroke-linejoin:round;stroke-miterlimit:0;stroke-dasharray:none;stroke-dashoffset:0;stroke-opacity:1"
		   />
		   <polygon points="47,59 47,77 60,68" style="fill:#000000;fill-opacity:1;stroke:#000000;stroke-width:2.5;stroke-linecap:round;stroke-linejoin:round;stroke-miterlimit:0;stroke-dasharray:none;stroke-dashoffset:0;stroke-opacity:1" />
		   <!-- Below is an invisible box so that the symbol stays on grid 
		   when in inkscape -->
		   <rect x="-32" y="-32" width="160" height="160" style="fill:none;stroke:none" />
		   <!-- default text positions and size
		 	"svg_nmos" WINDOW 0 70 48 Left 2
		 	"svg_nmos" SYMATTR Prefix MN
		   -->
	  </g>
	</defs>
<defs>
	<g id="svg_current">
	<circle cx="0" cy="32" r="24" style="stroke:black; stroke-width:4;fill:white"/>
	<path 
	d="
	M 0,48 4,36
	M 0,48 -4,36
	M -4,36 4,36
	M 0,16 0,36
	M 0,64 0,56
	M 0,0 0,8
	"
	style="fill:none;fill-opacity:1;stroke:#000000;stroke-width:2.5;stroke-linecap:round;stroke-linejoin:round;stroke-miterlimit:0;stroke-dasharray:none;stroke-dashoffset:0;stroke-opacity:1"
	/>
	<rect x="-32" y="-32" width="160" height="160" style="fill:none;stroke:none" />
	<!-- default text positions and size 
		"svg_current" WINDOW 0 -36 20 Right 2
		"svg_current" WINDOW 3 -36 44 Right 2
		"svg_current" SYMATTR Value I
		"svg_current" SYMATTR Prefix I
	-->
	</g>
</defs>
<defs>
	  <g id="svg_res">
		  <path 
		 d="M 16,0 32,5
		 M 32,5 0,16
		 M 0,16 32,27
		 M 32,27 0,37
		 M 0,37 32,48
		 M 32,48 0,59
		 M 0,59 16,64"
		 style="fill:none;fill-opacity:1;stroke:#000000;stroke-width:4;stroke-linecap:round;stroke-linejoin:round;stroke-miterlimit:0;stroke-dasharray:none;stroke-dashoffset:0;stroke-opacity:1"
		 />
		 <rect x="-32" y="-32" width="160" height="160" style="fill:none;stroke:none" />
		 <!-- default text positions and size 
		 	"svg_res" WINDOW 0 40 18 Left 2 
			"svg_res" WINDOW 3 40 46 Left 2
			"svg_res" SYMATTR Value R
			"svg_res" SYMATTR Prefix R
		-->
	  </g>
</defs>
<defs>
	  <g id="svg_cap">
		  <path 
		 d="M 16,37 16,64
		 M 16,27 16,0" 
		 style="fill:none;fill-opacity:1;stroke:#000000;stroke-width:2.5;stroke-linecap:round;stroke-linejoin:round;stroke-miterlimit:0;stroke-dasharray:none;stroke-dashoffset:0;stroke-opacity:1"
		   />
		   <path 
		 d="M -4,27 36,27
		 M -4,37 36,37" 
		 style="fill:none;fill-opacity:1;stroke:#000000;stroke-width:4;stroke-linecap:round;stroke-linejoin:round;stroke-miterlimit:0;stroke-dasharray:none;stroke-dashoffset:0;stroke-opacity:1"
		   />
		   <rect x="-32" y="-32" width="160" height="160" style="fill:none;stroke:none" />
		   <!-- default text positions and size 
		 	"svg_cap" WINDOW 0 44 18 Left 2
			"svg_cap" WINDOW 3 44 46 Left 2
			"svg_cap" SYMATTR Value C
			"svg_cap" SYMATTR Prefix C
		   -->
	  </g>
	</defs>
<defs>
     <g id="svg_meas_plus">
     <path 
     d="
     M 16,0 32,0
     M 24,-8 24,8
     "
     style="fill:none;fill-opacity:1;stroke:#000000;stroke-width:2.5;stroke-linecap:round;stroke-linejoin:round;stroke-miterlimit:0;stroke-dasharray:none;stroke-dashoffset:0;stroke-opacity:1"
     />      
     <rect x="-32" y="-32" width="160" height="160" style="fill:none;stroke:none" />
     </g>
</defs>
<defs>
     <g id="svg_meas_minus">
     <path 
     d="
     M 16,0 32,0
     "
     style="fill:none;fill-opacity:1;stroke:#000000;stroke-width:2.5;stroke-linecap:round;stroke-linejoin:round;stroke-miterlimit:0;stroke-dasharray:none;stroke-dashoffset:0;stroke-opacity:1"
     />      
     <rect x="-32" y="-32" width="160" height="160" style="fill:none;stroke:none" />
     </g>
</defs>
<defs>
     <g id="svg_block_quant">
    <path 
	d="
	M 16,8 16,56
	M 16,56 80,56
	M 80,56 80,8
	M 80,8 16,8
	M 24,48 40,48
	M 40,48 40,32
	M 40,32 56,32
	M 56,32 56,16
	M 56,16 72,16
	" 
	style="fill:none;fill-opacity:1;stroke:#000000;stroke-width:2.5;stroke-linecap:round;stroke-linejoin:round;stroke-miterlimit:0;stroke-dasharray:none;stroke-dashoffset:0;stroke-opacity:1"
	/>
     <rect x="-32" y="-32" width="160" height="160" style="fill:none;stroke:none" />
     </g>
</defs>
<defs>
     <g id="svg_block_delay">
    <path 
	d="
	M 0,8 0,56
	M 0,56 64,56
	M 64,56 64,8
	M 64,8 0,8
	" 
	style="fill:none;fill-opacity:1;stroke:#000000;stroke-width:2.5;stroke-linecap:round;stroke-linejoin:round;stroke-miterlimit:0;stroke-dasharray:none;stroke-dashoffset:0;stroke-opacity:1"
	/>
	<text x="28" y="36" style="white-space:pre;dominant-baseline:middle;text-anchor:middle;font-size:26px;">z</text>
	<text x="44" y="24" style="white-space:pre;dominant-baseline:middle;text-anchor:middle;font-size:20px;">-1</text>
     <rect x="-32" y="-32" width="160" height="160" style="fill:none;stroke:none" />
     </g>
</defs>
<defs>
     <g id="svg_block_dac">
    <path 
	d="
	M 48,56 0,56
	M 0,56 0,8
	M 0,8 48,8
	M 80,32 48,8
	M 80,32 48,56
	" 
	style="fill:none;fill-opacity:1;stroke:#000000;stroke-width:2.5;stroke-linecap:round;stroke-linejoin:round;stroke-miterlimit:0;stroke-dasharray:none;stroke-dashoffset:0;stroke-opacity:1"
	/>
     <rect x="-32" y="-32" width="160" height="160" style="fill:none;stroke:none" />
     <!-- default text positions and size 
			"svg_block_dac" WINDOW 3 32 32 Center 2
			"svg_block_dac" SYMATTR Value DAC
		-->
     </g>
</defs>
<defs>
     <g id="svg_block_sum">
     <circle cx="0" cy="16" r="16" style="stroke:black; stroke-width:2.5;fill:white"/>
      <path 
	d="M 0,8 0,24
	M 8,16 -8,16"
     style="fill:none;fill-opacity:1;stroke:#000000;stroke-width:2.5;stroke-linecap:round;stroke-linejoin:round;stroke-miterlimit:0;stroke-dasharray:none;stroke-dashoffset:0;stroke-opacity:1"
     />
     <rect x="-32" y="-32" width="160" height="160" style="fill:none;stroke:none" />
     </g>
</defs>
<defs>
     <g id="svg_block_arrow">
      <polygon points="-16,-5 -16,5 0,0" style="fill:black;fill-opacity:1;stroke:black;stroke-width:2.5;stroke-linecap:round;stroke-linejoin:round;stroke-miterlimit:0;stroke-dasharray:none;stroke-dashoffset:0;stroke-opacity:1" />
     <rect x="-32" y="-32" width="160" height="160" style="fill:none;stroke:none" />
     </g>
</defs>
<defs>
     <g id="svg_opamp">
     <path 
     d="
	M -28,48 -20,48
	M -28,80 -20,80
	M -24,84 -24,76
"
     style="fill:none;fill-opacity:1;stroke:#000000;stroke-width:2.5;stroke-linecap:round;stroke-linejoin:round;stroke-miterlimit:0;stroke-dasharray:none;stroke-dashoffset:0;stroke-opacity:1"
     /> 
     <path 
     d="
    M -32,32 32,64
	M -32,96 32,64
	M -32,32 -32,96
"
     style="fill:none;fill-opacity:1;stroke:#000000;stroke-width:4;stroke-linecap:round;stroke-linejoin:round;stroke-miterlimit:0;stroke-dasharray:none;stroke-dashoffset:0;stroke-opacity:1"
     />      
     <rect x="-48" y="-48" width="208" height="208" style="fill:none;stroke:none" />
     </g>
</defs>

<g inkscape:label="Layer 1" inkscape:groupmode="layer" id="layer1">
<polyline points="736 80 704 80" style="fill:none;fill-opacity:1;stroke:#000000;stroke-width:2.5;stroke-linecap:round;stroke-linejoin:round;stroke-miterlimit:0;stroke-dasharray:none;stroke-dashoffset:0;stroke-opacity:1" />
<polyline points="832 80 800 80" style="fill:none;fill-opacity:1;stroke:#000000;stroke-width:2.5;stroke-linecap:round;stroke-linejoin:round;stroke-miterlimit:0;stroke-dasharray:none;stroke-dashoffset:0;stroke-opacity:1" />
<polyline points="192 112 192 80" style="fill:none;fill-opacity:1;stroke:#000000;stroke-width:2.5;stroke-linecap:round;stroke-linejoin:round;stroke-miterlimit:0;stroke-dasharray:none;stroke-dashoffset:0;stroke-opacity:1" />
<polyline points="352 112 352 80" style="fill:none;fill-opacity:1;stroke:#000000;stroke-width:2.5;stroke-linecap:round;stroke-linejoin:round;stroke-miterlimit:0;stroke-dasharray:none;stroke-dashoffset:0;stroke-opacity:1" />
<polyline points="704 144 704 80" style="fill:none;fill-opacity:1;stroke:#000000;stroke-width:2.5;stroke-linecap:round;stroke-linejoin:round;stroke-miterlimit:0;stroke-dasharray:none;stroke-dashoffset:0;stroke-opacity:1" />
<polyline points="736 144 704 144" style="fill:none;fill-opacity:1;stroke:#000000;stroke-width:2.5;stroke-linecap:round;stroke-linejoin:round;stroke-miterlimit:0;stroke-dasharray:none;stroke-dashoffset:0;stroke-opacity:1" />
<polyline points="832 144 832 80" style="fill:none;fill-opacity:1;stroke:#000000;stroke-width:2.5;stroke-linecap:round;stroke-linejoin:round;stroke-miterlimit:0;stroke-dasharray:none;stroke-dashoffset:0;stroke-opacity:1" />
<polyline points="832 144 800 144" style="fill:none;fill-opacity:1;stroke:#000000;stroke-width:2.5;stroke-linecap:round;stroke-linejoin:round;stroke-miterlimit:0;stroke-dasharray:none;stroke-dashoffset:0;stroke-opacity:1" />
<polyline points="1104 160 1104 128" style="fill:none;fill-opacity:1;stroke:#000000;stroke-width:2.5;stroke-linecap:round;stroke-linejoin:round;stroke-miterlimit:0;stroke-dasharray:none;stroke-dashoffset:0;stroke-opacity:1" />
<polyline points="608 208 576 208" style="fill:none;fill-opacity:1;stroke:#000000;stroke-width:2.5;stroke-linecap:round;stroke-linejoin:round;stroke-miterlimit:0;stroke-dasharray:none;stroke-dashoffset:0;stroke-opacity:1" />
<polyline points="704 208 704 144" style="fill:none;fill-opacity:1;stroke:#000000;stroke-width:2.5;stroke-linecap:round;stroke-linejoin:round;stroke-miterlimit:0;stroke-dasharray:none;stroke-dashoffset:0;stroke-opacity:1" />
<polyline points="704 208 672 208" style="fill:none;fill-opacity:1;stroke:#000000;stroke-width:2.5;stroke-linecap:round;stroke-linejoin:round;stroke-miterlimit:0;stroke-dasharray:none;stroke-dashoffset:0;stroke-opacity:1" />
<polyline points="720 208 704 208" style="fill:none;fill-opacity:1;stroke:#000000;stroke-width:2.5;stroke-linecap:round;stroke-linejoin:round;stroke-miterlimit:0;stroke-dasharray:none;stroke-dashoffset:0;stroke-opacity:1" />
<polyline points="192 224 192 176" style="fill:none;fill-opacity:1;stroke:#000000;stroke-width:2.5;stroke-linecap:round;stroke-linejoin:round;stroke-miterlimit:0;stroke-dasharray:none;stroke-dashoffset:0;stroke-opacity:1" />
<polyline points="224 224 192 224" style="fill:none;fill-opacity:1;stroke:#000000;stroke-width:2.5;stroke-linecap:round;stroke-linejoin:round;stroke-miterlimit:0;stroke-dasharray:none;stroke-dashoffset:0;stroke-opacity:1" />
<polyline points="352 224 352 176" style="fill:none;fill-opacity:1;stroke:#000000;stroke-width:2.5;stroke-linecap:round;stroke-linejoin:round;stroke-miterlimit:0;stroke-dasharray:none;stroke-dashoffset:0;stroke-opacity:1" />
<polyline points="352 224 320 224" style="fill:none;fill-opacity:1;stroke:#000000;stroke-width:2.5;stroke-linecap:round;stroke-linejoin:round;stroke-miterlimit:0;stroke-dasharray:none;stroke-dashoffset:0;stroke-opacity:1" />
<polyline points="832 224 832 144" style="fill:none;fill-opacity:1;stroke:#000000;stroke-width:2.5;stroke-linecap:round;stroke-linejoin:round;stroke-miterlimit:0;stroke-dasharray:none;stroke-dashoffset:0;stroke-opacity:1" />
<polyline points="832 224 784 224" style="fill:none;fill-opacity:1;stroke:#000000;stroke-width:2.5;stroke-linecap:round;stroke-linejoin:round;stroke-miterlimit:0;stroke-dasharray:none;stroke-dashoffset:0;stroke-opacity:1" />
<polyline points="880 224 832 224" style="fill:none;fill-opacity:1;stroke:#000000;stroke-width:2.5;stroke-linecap:round;stroke-linejoin:round;stroke-miterlimit:0;stroke-dasharray:none;stroke-dashoffset:0;stroke-opacity:1" />
<polyline points="192 240 192 224" style="fill:none;fill-opacity:1;stroke:#000000;stroke-width:2.5;stroke-linecap:round;stroke-linejoin:round;stroke-miterlimit:0;stroke-dasharray:none;stroke-dashoffset:0;stroke-opacity:1" />
<polyline points="352 240 352 224" style="fill:none;fill-opacity:1;stroke:#000000;stroke-width:2.5;stroke-linecap:round;stroke-linejoin:round;stroke-miterlimit:0;stroke-dasharray:none;stroke-dashoffset:0;stroke-opacity:1" />
<polyline points="720 240 688 240" style="fill:none;fill-opacity:1;stroke:#000000;stroke-width:2.5;stroke-linecap:round;stroke-linejoin:round;stroke-miterlimit:0;stroke-dasharray:none;stroke-dashoffset:0;stroke-opacity:1" />
<polyline points="1104 240 1104 224" style="fill:none;fill-opacity:1;stroke:#000000;stroke-width:2.5;stroke-linecap:round;stroke-linejoin:round;stroke-miterlimit:0;stroke-dasharray:none;stroke-dashoffset:0;stroke-opacity:1" />
<polyline points="1104 240 1008 240" style="fill:none;fill-opacity:1;stroke:#000000;stroke-width:2.5;stroke-linecap:round;stroke-linejoin:round;stroke-miterlimit:0;stroke-dasharray:none;stroke-dashoffset:0;stroke-opacity:1" />
<polyline points="1152 240 1104 240" style="fill:none;fill-opacity:1;stroke:#000000;stroke-width:2.5;stroke-linecap:round;stroke-linejoin:round;stroke-miterlimit:0;stroke-dasharray:none;stroke-dashoffset:0;stroke-opacity:1" />
<polyline points="688 256 688 240" style="fill:none;fill-opacity:1;stroke:#000000;stroke-width:2.5;stroke-linecap:round;stroke-linejoin:round;stroke-miterlimit:0;stroke-dasharray:none;stroke-dashoffset:0;stroke-opacity:1" />
<polyline points="1104 256 1104 240" style="fill:none;fill-opacity:1;stroke:#000000;stroke-width:2.5;stroke-linecap:round;stroke-linejoin:round;stroke-miterlimit:0;stroke-dasharray:none;stroke-dashoffset:0;stroke-opacity:1" />
<polyline points="-32 272 -80 272" style="fill:none;fill-opacity:1;stroke:#000000;stroke-width:2.5;stroke-linecap:round;stroke-linejoin:round;stroke-miterlimit:0;stroke-dasharray:none;stroke-dashoffset:0;stroke-opacity:1" />
<polyline points="128 272 64 272" style="fill:none;fill-opacity:1;stroke:#000000;stroke-width:2.5;stroke-linecap:round;stroke-linejoin:round;stroke-miterlimit:0;stroke-dasharray:none;stroke-dashoffset:0;stroke-opacity:1" />
<polyline points="480 272 416 272" style="fill:none;fill-opacity:1;stroke:#000000;stroke-width:2.5;stroke-linecap:round;stroke-linejoin:round;stroke-miterlimit:0;stroke-dasharray:none;stroke-dashoffset:0;stroke-opacity:1" />
<polyline points="1008 288 1008 240" style="fill:none;fill-opacity:1;stroke:#000000;stroke-width:2.5;stroke-linecap:round;stroke-linejoin:round;stroke-miterlimit:0;stroke-dasharray:none;stroke-dashoffset:0;stroke-opacity:1" />
<polyline points="1040 288 1008 288" style="fill:none;fill-opacity:1;stroke:#000000;stroke-width:2.5;stroke-linecap:round;stroke-linejoin:round;stroke-miterlimit:0;stroke-dasharray:none;stroke-dashoffset:0;stroke-opacity:1" />
<polyline points="688 336 688 320" style="fill:none;fill-opacity:1;stroke:#000000;stroke-width:2.5;stroke-linecap:round;stroke-linejoin:round;stroke-miterlimit:0;stroke-dasharray:none;stroke-dashoffset:0;stroke-opacity:1" />
<polyline points="1104 352 1104 320" style="fill:none;fill-opacity:1;stroke:#000000;stroke-width:2.5;stroke-linecap:round;stroke-linejoin:round;stroke-miterlimit:0;stroke-dasharray:none;stroke-dashoffset:0;stroke-opacity:1" />
<polyline points="-32 368 64 272" style="fill:none;fill-opacity:1;stroke:#000000;stroke-width:2.5;stroke-linecap:round;stroke-linejoin:round;stroke-miterlimit:0;stroke-dasharray:none;stroke-dashoffset:0;stroke-opacity:1" />
<polyline points="-32 368 -80 368" style="fill:none;fill-opacity:1;stroke:#000000;stroke-width:2.5;stroke-linecap:round;stroke-linejoin:round;stroke-miterlimit:0;stroke-dasharray:none;stroke-dashoffset:0;stroke-opacity:1" />
<polyline points="64 368 -32 272" style="fill:none;fill-opacity:1;stroke:#000000;stroke-width:2.5;stroke-linecap:round;stroke-linejoin:round;stroke-miterlimit:0;stroke-dasharray:none;stroke-dashoffset:0;stroke-opacity:1" />
<polyline points="480 368 480 272" style="fill:none;fill-opacity:1;stroke:#000000;stroke-width:2.5;stroke-linecap:round;stroke-linejoin:round;stroke-miterlimit:0;stroke-dasharray:none;stroke-dashoffset:0;stroke-opacity:1" />
<polyline points="480 368 64 368" style="fill:none;fill-opacity:1;stroke:#000000;stroke-width:2.5;stroke-linecap:round;stroke-linejoin:round;stroke-miterlimit:0;stroke-dasharray:none;stroke-dashoffset:0;stroke-opacity:1" />
<polyline points="192 464 192 304" style="fill:none;fill-opacity:1;stroke:#000000;stroke-width:2.5;stroke-linecap:round;stroke-linejoin:round;stroke-miterlimit:0;stroke-dasharray:none;stroke-dashoffset:0;stroke-opacity:1" />
<polyline points="240 464 192 464" style="fill:none;fill-opacity:1;stroke:#000000;stroke-width:2.5;stroke-linecap:round;stroke-linejoin:round;stroke-miterlimit:0;stroke-dasharray:none;stroke-dashoffset:0;stroke-opacity:1" />
<polyline points="352 464 352 304" style="fill:none;fill-opacity:1;stroke:#000000;stroke-width:2.5;stroke-linecap:round;stroke-linejoin:round;stroke-miterlimit:0;stroke-dasharray:none;stroke-dashoffset:0;stroke-opacity:1" />
<polyline points="352 464 304 464" style="fill:none;fill-opacity:1;stroke:#000000;stroke-width:2.5;stroke-linecap:round;stroke-linejoin:round;stroke-miterlimit:0;stroke-dasharray:none;stroke-dashoffset:0;stroke-opacity:1" />
<polyline points="576 480 544 480" style="fill:none;fill-opacity:1;stroke:#000000;stroke-width:2.5;stroke-linecap:round;stroke-linejoin:round;stroke-miterlimit:0;stroke-dasharray:none;stroke-dashoffset:0;stroke-opacity:1" />
<polyline points="640 480 624 480" style="fill:none;fill-opacity:1;stroke:#000000;stroke-width:2.5;stroke-linecap:round;stroke-linejoin:round;stroke-miterlimit:0;stroke-dasharray:none;stroke-dashoffset:0;stroke-opacity:1" />
<polyline points="704 480 688 480" style="fill:none;fill-opacity:1;stroke:#000000;stroke-width:2.5;stroke-linecap:round;stroke-linejoin:round;stroke-miterlimit:0;stroke-dasharray:none;stroke-dashoffset:0;stroke-opacity:1" />
<polyline points="816 480 784 480" style="fill:none;fill-opacity:1;stroke:#000000;stroke-width:2.5;stroke-linecap:round;stroke-linejoin:round;stroke-miterlimit:0;stroke-dasharray:none;stroke-dashoffset:0;stroke-opacity:1" />
<polyline points="832 480 816 480" style="fill:none;fill-opacity:1;stroke:#000000;stroke-width:2.5;stroke-linecap:round;stroke-linejoin:round;stroke-miterlimit:0;stroke-dasharray:none;stroke-dashoffset:0;stroke-opacity:1" />
<polyline points="944 480 912 480" style="fill:none;fill-opacity:1;stroke:#000000;stroke-width:2.5;stroke-linecap:round;stroke-linejoin:round;stroke-miterlimit:0;stroke-dasharray:none;stroke-dashoffset:0;stroke-opacity:1" />
<polyline points="976 480 944 480" style="fill:none;fill-opacity:1;stroke:#000000;stroke-width:2.5;stroke-linecap:round;stroke-linejoin:round;stroke-miterlimit:0;stroke-dasharray:none;stroke-dashoffset:0;stroke-opacity:1" />
<polyline points="672 528 672 512" style="fill:none;fill-opacity:1;stroke:#000000;stroke-width:2.5;stroke-linecap:round;stroke-linejoin:round;stroke-miterlimit:0;stroke-dasharray:none;stroke-dashoffset:0;stroke-opacity:1" />
<polyline points="816 528 816 480" style="fill:none;fill-opacity:1;stroke:#000000;stroke-width:2.5;stroke-linecap:round;stroke-linejoin:round;stroke-miterlimit:0;stroke-dasharray:none;stroke-dashoffset:0;stroke-opacity:1" />
<polyline points="816 528 672 528" style="fill:none;fill-opacity:1;stroke:#000000;stroke-width:2.5;stroke-linecap:round;stroke-linejoin:round;stroke-miterlimit:0;stroke-dasharray:none;stroke-dashoffset:0;stroke-opacity:1" />
<polyline points="192 560 192 464" style="fill:none;fill-opacity:1;stroke:#000000;stroke-width:2.5;stroke-linecap:round;stroke-linejoin:round;stroke-miterlimit:0;stroke-dasharray:none;stroke-dashoffset:0;stroke-opacity:1" />
<polyline points="240 560 192 560" style="fill:none;fill-opacity:1;stroke:#000000;stroke-width:2.5;stroke-linecap:round;stroke-linejoin:round;stroke-miterlimit:0;stroke-dasharray:none;stroke-dashoffset:0;stroke-opacity:1" />
<polyline points="352 560 352 464" style="fill:none;fill-opacity:1;stroke:#000000;stroke-width:2.5;stroke-linecap:round;stroke-linejoin:round;stroke-miterlimit:0;stroke-dasharray:none;stroke-dashoffset:0;stroke-opacity:1" />
<polyline points="352 560 304 560" style="fill:none;fill-opacity:1;stroke:#000000;stroke-width:2.5;stroke-linecap:round;stroke-linejoin:round;stroke-miterlimit:0;stroke-dasharray:none;stroke-dashoffset:0;stroke-opacity:1" />
<polyline points="608 576 608 512" style="fill:none;fill-opacity:1;stroke:#000000;stroke-width:2.5;stroke-linecap:round;stroke-linejoin:round;stroke-miterlimit:0;stroke-dasharray:none;stroke-dashoffset:0;stroke-opacity:1" />
<polyline points="832 576 608 576" style="fill:none;fill-opacity:1;stroke:#000000;stroke-width:2.5;stroke-linecap:round;stroke-linejoin:round;stroke-miterlimit:0;stroke-dasharray:none;stroke-dashoffset:0;stroke-opacity:1" />
<polyline points="944 576 944 480" style="fill:none;fill-opacity:1;stroke:#000000;stroke-width:2.5;stroke-linecap:round;stroke-linejoin:round;stroke-miterlimit:0;stroke-dasharray:none;stroke-dashoffset:0;stroke-opacity:1" />
<polyline points="944 576 928 576" style="fill:none;fill-opacity:1;stroke:#000000;stroke-width:2.5;stroke-linecap:round;stroke-linejoin:round;stroke-miterlimit:0;stroke-dasharray:none;stroke-dashoffset:0;stroke-opacity:1" />
<polyline points="192 624 192 560" style="fill:none;fill-opacity:1;stroke:#000000;stroke-width:2.5;stroke-linecap:round;stroke-linejoin:round;stroke-miterlimit:0;stroke-dasharray:none;stroke-dashoffset:0;stroke-opacity:1" />
<polyline points="352 624 352 560" style="fill:none;fill-opacity:1;stroke:#000000;stroke-width:2.5;stroke-linecap:round;stroke-linejoin:round;stroke-miterlimit:0;stroke-dasharray:none;stroke-dashoffset:0;stroke-opacity:1" />
<polyline points="192 720 192 688" style="fill:none;fill-opacity:1;stroke:#000000;stroke-width:2.5;stroke-linecap:round;stroke-linejoin:round;stroke-miterlimit:0;stroke-dasharray:none;stroke-dashoffset:0;stroke-opacity:1" />
<polyline points="352 720 352 688" style="fill:none;fill-opacity:1;stroke:#000000;stroke-width:2.5;stroke-linecap:round;stroke-linejoin:round;stroke-miterlimit:0;stroke-dasharray:none;stroke-dashoffset:0;stroke-opacity:1" />
<use xlink:href="#svg_dot" x="704" y="144" transform = "rotate(0 704 144)" />
<use xlink:href="#svg_dot" x="832" y="144" transform = "rotate(0 832 144)" />
<use xlink:href="#svg_dot" x="704" y="208" transform = "rotate(0 704 208)" />
<use xlink:href="#svg_dot" x="192" y="224" transform = "rotate(0 192 224)" />
<use xlink:href="#svg_dot" x="352" y="224" transform = "rotate(0 352 224)" />
<use xlink:href="#svg_dot" x="832" y="224" transform = "rotate(0 832 224)" />
<use xlink:href="#svg_dot" x="1104" y="240" transform = "rotate(0 1104 240)" />
<use xlink:href="#svg_dot" x="192" y="464" transform = "rotate(0 192 464)" />
<use xlink:href="#svg_dot" x="352" y="464" transform = "rotate(0 352 464)" />
<use xlink:href="#svg_dot" x="816" y="480" transform = "rotate(0 816 480)" />
<use xlink:href="#svg_dot" x="944" y="480" transform = "rotate(0 944 480)" />
<use xlink:href="#svg_dot" x="192" y="560" transform = "rotate(0 192 560)" />
<use xlink:href="#svg_dot" x="352" y="560" transform = "rotate(0 352 560)" />
<use xlink:href="#svg_jumpCirc" x="192" y="368" transform = "rotate(0 192 368)" />
<use xlink:href="#svg_jumpLine" x="192" y="368" transform = "rotate(90 192 368)" />
<use xlink:href="#svg_jumpCirc" x="352" y="368" transform = "rotate(0 352 368)" />
<use xlink:href="#svg_jumpLine" x="352" y="368" transform = "rotate(90 352 368)" />
<use xlink:href="#svg_jumpCirc" x="16.00" y="320.00" transform = "rotate(45.00 16.00 320.00)" />
<use xlink:href="#svg_jumpLine" x="16.00" y="320.00" transform = "rotate(-45.00 16.00 320.00)" />
<g 
>
<use xlink:href="#svg_nmos" x="128" y="224" transform = "rotate(0 128 224)" />
</g>
<text x="206" y="272" style="white-space:pre;text-anchor:start;font-size:20px;"><tspan dy="0.25em">M1</tspan></text>
<text x="136" y="224" style="white-space:pre;text-anchor:start;text-anchor:start;"><tspan dy="0.25em"></tspan></text>
<g 
transform = "scale(-1 1) translate(-416 0) translate(-416 0)" >
<use xlink:href="#svg_nmos" x="416" y="224" transform = "rotate(0 416 224)" />
</g>
<text x="338" y="272" style="white-space:pre;text-anchor:end;font-size:20px;"><tspan dy="0.25em">M2</tspan></text>
<text x="408" y="224" style="white-space:pre;text-anchor:end;text-anchor:end;"><tspan dy="0.25em"></tspan></text>
<g 
>
<use xlink:href="#svg_current" x="352" y="624" transform = "rotate(0 352 624)" />
</g>
<text x="308" y="644" style="white-space:pre;text-anchor:end;font-size:20px;"><tspan dy="0.25em">I1</tspan></text>
<g 
>
<use xlink:href="#svg_res" x="176" y="112" transform = "rotate(0 176 112)" />
</g>
<text x="224" y="130" style="white-space:pre;text-anchor:start;font-size:20px;"><tspan dy="0.25em">R1</tspan></text>
<g 
>
<use xlink:href="#svg_res" x="336" y="112" transform = "rotate(0 336 112)" />
</g>
<text x="384" y="130" style="white-space:pre;text-anchor:start;font-size:20px;"><tspan dy="0.25em">R2</tspan></text>
<g 
>
<use xlink:href="#svg_res" x="304" y="448" transform = "rotate(90 304 448)" />
</g>
<text x="272" y="440" style="white-space:pre;text-anchor:middle;font-size:20px;"><tspan dy="0.0em">R3</tspan></text>
<g 
>
<use xlink:href="#svg_cap" x="304" y="544" transform = "rotate(90 304 544)" />
</g>
<text x="272" y="536" style="white-space:pre;text-anchor:middle;font-size:20px;"><tspan dy="0.0em">C1</tspan></text>
<g 
>
<use xlink:href="#svg_current" x="192" y="624" transform = "rotate(0 192 624)" />
</g>
<text x="148" y="644" style="white-space:pre;text-anchor:end;font-size:20px;"><tspan dy="0.25em">I2</tspan></text>
<g 
>
<use xlink:href="#svg_meas_plus" x="272" y="224" transform = "rotate(0 272 224)" />
</g>
<text x="280" y="224" style="white-space:pre;text-anchor:start;text-anchor:start;"><tspan dy="0.25em"></tspan></text>
<g 
>
<use xlink:href="#svg_meas_minus" x="224" y="224" transform = "rotate(0 224 224)" />
</g>
<text x="232" y="224" style="white-space:pre;text-anchor:start;text-anchor:start;"><tspan dy="0.25em"></tspan></text>
<g 
>
<use xlink:href="#svg_block_quant" x="832" y="448" transform = "rotate(0 832 448)" />
</g>
<text x="840" y="448" style="white-space:pre;text-anchor:start;text-anchor:start;"><tspan dy="0.25em"></tspan></text>
<g 
>
<use xlink:href="#svg_block_delay" x="720" y="448" transform = "rotate(0 720 448)" />
</g>
<text x="728" y="448" style="white-space:pre;text-anchor:start;text-anchor:start;"><tspan dy="0.25em"></tspan></text>
<g 
transform = "scale(-1 1) translate(-912 0) translate(-912 0)" >
<use xlink:href="#svg_block_dac" x="912" y="544" transform = "rotate(0 912 544)" />
</g>
<text x="880" y="576" style="white-space:pre;text-anchor:middle;font-size:20px;"><tspan dy="0.25em">DAC</tspan></text>
<g 
>
<use xlink:href="#svg_block_sum" x="608" y="464" transform = "rotate(0 608 464)" />
</g>
<text x="616" y="464" style="white-space:pre;text-anchor:start;text-anchor:start;"><tspan dy="0.25em"></tspan></text>
<g 
>
<use xlink:href="#svg_block_sum" x="672" y="464" transform = "rotate(0 672 464)" />
</g>
<text x="680" y="464" style="white-space:pre;text-anchor:start;text-anchor:start;"><tspan dy="0.25em"></tspan></text>
<g 
>
<use xlink:href="#svg_block_arrow" x="656" y="480" transform = "rotate(0 656 480)" />
</g>
<text x="664" y="480" style="white-space:pre;text-anchor:start;text-anchor:start;"><tspan dy="0.25em"></tspan></text>
<g 
>
<use xlink:href="#svg_block_arrow" x="592" y="480" transform = "rotate(0 592 480)" />
</g>
<text x="600" y="480" style="white-space:pre;text-anchor:start;text-anchor:start;"><tspan dy="0.25em"></tspan></text>
<g 
>
<use xlink:href="#svg_block_arrow" x="720" y="480" transform = "rotate(0 720 480)" />
</g>
<text x="728" y="480" style="white-space:pre;text-anchor:start;text-anchor:start;"><tspan dy="0.25em"></tspan></text>
<g 
>
<use xlink:href="#svg_block_arrow" x="848" y="480" transform = "rotate(0 848 480)" />
</g>
<text x="856" y="480" style="white-space:pre;text-anchor:start;text-anchor:start;"><tspan dy="0.25em"></tspan></text>
<g 
transform = "scale(-1 1) translate(-912 0) translate(-912 0)" >
<use xlink:href="#svg_block_arrow" x="912" y="576" transform = "rotate(0 912 576)" />
</g>
<text x="904" y="576" style="white-space:pre;text-anchor:end;text-anchor:end;"><tspan dy="0.25em"></tspan></text>
<g 
transform = "scale(-1 1) translate(-672 0) translate(-672 0)" >
<use xlink:href="#svg_block_arrow" x="672" y="496" transform = "rotate(270 672 496)" />
</g>
<text x="672" y="496" style="white-space:pre;text-anchor:middle;text-anchor:middle;"><tspan dy="0.25em"></tspan></text>
<g 
transform = "scale(-1 1) translate(-608 0) translate(-608 0)" >
<use xlink:href="#svg_block_arrow" x="608" y="496" transform = "rotate(270 608 496)" />
</g>
<text x="608" y="496" style="white-space:pre;text-anchor:middle;text-anchor:middle;"><tspan dy="0.25em"></tspan></text>
<g 
>
<use xlink:href="#svg_meas_minus" x="560" y="512" transform = "rotate(0 560 512)" />
</g>
<text x="568" y="512" style="white-space:pre;text-anchor:start;text-anchor:start;"><tspan dy="0.25em"></tspan></text>
<g 
>
<use xlink:href="#svg_block_arrow" x="992" y="480" transform = "rotate(0 992 480)" />
</g>
<text x="1000" y="480" style="white-space:pre;text-anchor:start;text-anchor:start;"><tspan dy="0.25em"></tspan></text>
<g 
>
<use xlink:href="#svg_opamp" x="752" y="160" transform = "rotate(0 752 160)" />
</g>
<text x="760" y="160" style="white-space:pre;text-anchor:start;text-anchor:start;"><tspan dy="0.25em"></tspan></text>
<g 
>
<use xlink:href="#svg_res" x="672" y="192" transform = "rotate(90 672 192)" />
</g>
<text x="641" y="178" style="white-space:pre;text-anchor:middle;font-size:20px;"><tspan dy="0.0em">10k\Omega</tspan></text>
<g 
>
<use xlink:href="#svg_res" x="800" y="128" transform = "rotate(90 800 128)" />
</g>
<text x="768" y="120" style="white-space:pre;text-anchor:middle;font-size:20px;"><tspan dy="0.0em">100k\Omega</tspan></text>
<g 
>
<use xlink:href="#svg_res" x="704" y="320" transform = "rotate(180 704 320)" />
</g>
<text x="655" y="281" style="white-space:pre;text-anchor:end;font-size:20px;"><tspan dy="0.25em">10k\Omega</tspan></text>
<g 
>
<use xlink:href="#svg_cap" x="800" y="64" transform = "rotate(90 800 64)" />
</g>
<text x="768" y="49" style="white-space:pre;text-anchor:middle;font-size:20px;"><tspan dy="0.0em">1\muF</tspan></text>
<g 
>
<use xlink:href="#svg_nmos" x="1040" y="240" transform = "rotate(0 1040 240)" />
</g>
<text x="1118" y="288" style="white-space:pre;text-anchor:start;font-size:20px;"><tspan dy="0.25em">M3</tspan></text>
<text x="1048" y="240" style="white-space:pre;text-anchor:start;text-anchor:start;"><tspan dy="0.25em"></tspan></text>
<g 
>
<use xlink:href="#svg_current" x="1104" y="160" transform = "rotate(0 1104 160)" />
</g>
<text x="1060" y="180" style="white-space:pre;text-anchor:end;font-size:20px;"><tspan dy="0.25em">I3</tspan></text>
<use xlink:href="#svg_gnd" x="192" y="720" transform = "rotate(0 192 720)" />
<use xlink:href="#svg_gnd" x="352" y="720" transform = "rotate(0 352 720)" />
<use xlink:href="#svg_port" x="-80" y="272" transform = "rotate(0 -80 272)" />
<text x="-92" y="272" style="white-space:pre;text-anchor:end;font-size:20px;"><tspan dy="0.25em">V_in+</tspan></text>
<use xlink:href="#svg_port" x="-80" y="368" transform = "rotate(0 -80 368)" />
<text x="-92" y="368" style="white-space:pre;text-anchor:end;font-size:20px;"><tspan dy="0.25em">V_in-</tspan></text>
<use xlink:href="#svg_supply" x="192" y="80" transform = "rotate(0 192 80)" />
<text x="192" y="57" style="white-space:pre;text-anchor:middle;font-size:20px;"><tspan dy="0.0em">V_dd</tspan></text>
<use xlink:href="#svg_supply" x="352" y="80" transform = "rotate(0 352 80)" />
<text x="352" y="57" style="white-space:pre;text-anchor:middle;font-size:20px;"><tspan dy="0.0em">V_dd</tspan></text>
<use xlink:href="#svg_port" x="224" y="224" transform = "rotate(0 224 224)" />
<text x="236" y="224" style="white-space:pre;text-anchor:start;font-size:20px;"><tspan dy="0.25em"></tspan></text>
<use xlink:href="#svg_port" x="320" y="224" transform = "rotate(0 320 224)" />
<text x="308" y="224" style="white-space:pre;text-anchor:end;font-size:20px;"><tspan dy="0.25em"></tspan></text>
<use xlink:href="#svg_gnd" x="688" y="336" transform = "rotate(0 688 336)" />
<use xlink:href="#svg_port" x="880" y="224" transform = "rotate(0 880 224)" />
<text x="892" y="224" style="white-space:pre;text-anchor:start;font-size:20px;"><tspan dy="0.25em">v_out</tspan></text>
<use xlink:href="#svg_port" x="576" y="208" transform = "rotate(0 576 208)" />
<text x="564" y="208" style="white-space:pre;text-anchor:end;font-size:20px;"><tspan dy="0.25em">v_in</tspan></text>
<use xlink:href="#svg_supply" x="1104" y="128" transform = "rotate(0 1104 128)" />
<text x="1104" y="105" style="white-space:pre;text-anchor:middle;font-size:20px;"><tspan dy="0.0em">V_dd</tspan></text>
<use xlink:href="#svg_gnd" x="1104" y="352" transform = "rotate(0 1104 352)" />
<use xlink:href="#svg_port" x="1152" y="240" transform = "rotate(0 1152 240)" />
<text x="1164" y="240" style="white-space:pre;text-anchor:start;font-size:20px;"><tspan dy="0.25em">V_B1</tspan></text>
<text x="272" y="192" style="white-space:pre;text-anchor:middle;font-size:20px;"><tspan dy="0.25em">V_out</tspan></text>
<text x="536" y="480" style="white-space:pre;text-anchor:end;font-size:20px;"><tspan dy="0.25em">u(n)</tspan></text>
<text x="1000" y="480" style="white-space:pre;text-anchor:start;font-size:20px;"><tspan dy="0.25em">y(n)</tspan></text>
<polyline points="240 488 308 432" style="fill:none;fill-opacity:1;stroke:#000000;stroke-width:2.5;stroke-linecap:round;stroke-linejoin:round;stroke-miterlimit:0;stroke-dasharray:0;stroke-dashoffset:0;stroke-opacity:1" />
<polyline points="308 432 308 444" style="fill:none;fill-opacity:1;stroke:#000000;stroke-width:2.5;stroke-linecap:round;stroke-linejoin:round;stroke-miterlimit:0;stroke-dasharray:0;stroke-dashoffset:0;stroke-opacity:1" />
<polyline points="308 444 308 432" style="fill:none;fill-opacity:1;stroke:#000000;stroke-width:2.5;stroke-linecap:round;stroke-linejoin:round;stroke-miterlimit:0;stroke-dasharray:4 4;stroke-dashoffset:0;stroke-opacity:1" />
<polyline points="308 432 296 432" style="fill:none;fill-opacity:1;stroke:#000000;stroke-width:2.5;stroke-linecap:round;stroke-linejoin:round;stroke-miterlimit:0;stroke-dasharray:0;stroke-dashoffset:0;stroke-opacity:1" />
<polyline points="236 588 304 532" style="fill:none;fill-opacity:1;stroke:#000000;stroke-width:2.5;stroke-linecap:round;stroke-linejoin:round;stroke-miterlimit:0;stroke-dasharray:0;stroke-dashoffset:0;stroke-opacity:1" />
<polyline points="304 532 304 544" style="fill:none;fill-opacity:1;stroke:#000000;stroke-width:2.5;stroke-linecap:round;stroke-linejoin:round;stroke-miterlimit:0;stroke-dasharray:0;stroke-dashoffset:0;stroke-opacity:1" />
<polyline points="304 544 304 532" style="fill:none;fill-opacity:1;stroke:#000000;stroke-width:2.5;stroke-linecap:round;stroke-linejoin:round;stroke-miterlimit:0;stroke-dasharray:4 4;stroke-dashoffset:0;stroke-opacity:1" />
<polyline points="304 532 292 532" style="fill:none;fill-opacity:1;stroke:#000000;stroke-width:2.5;stroke-linecap:round;stroke-linejoin:round;stroke-miterlimit:0;stroke-dasharray:0;stroke-dashoffset:0;stroke-opacity:1" />
</g>
</svg>
