<?xml version="1.0" encoding="UTF-8" standalone="no"?>
<!-- Created with icemaker: version = 0.7.3 (2020-07-27) -->

<svg
	xmlns:dc="http://purl.org/dc/elements/1.1/"
	xmlns:cc="http://creativecommons.org/ns#"
	xmlns:rdf="http://www.w3.org/1999/02/22-rdf-syntax-ns#"
	xmlns:svg="http://www.w3.org/2000/svg"
	xmlns="http://www.w3.org/2000/svg"
	xmlns:xlink="http://www.w3.org/1999/xlink"
	xmlns:sodipodi="http://sodipodi.sourceforge.net/DTD/sodipodi-0.dtd"
	xmlns:inkscape="http://www.inkscape.org/namespaces/inkscape"
	width = "768" height = "320"
	viewBox="-224 -64 768 320"
	version="1.1"
	id="svg8"
	inkscape:version="0.92.2 5c3e80d, 2017-08-06"
	sodipodi:docname="test.svg">
	<defs
		id="defs9" />
	<sodipodi:namedview
		 id="base"
		 pagecolor="#ffffff"
		 bordercolor="#666666"
		 borderopacity="1.0"
		 inkscape:pageopacity="0.0"
		 inkscape:pageshadow="2"
		 inkscape:zoom="1.0"
		 inkscape:cx="1024"
		 inkscape:cy="1024"
		 inkscape:document-units="px"
		 inkscape:current-layer="layer1"
		 showgrid="true"
		 inkscape:window-width="1024"
		 inkscape:window-height="1024"
		 inkscape:window-x="1024"
		 inkscape:window-y="1024"
		 inkscape:window-maximized="0"
		 showguides="true"
		 units="px"
		 fit-margin-top="0"
		 fit-margin-left="0"
		 fit-margin-right="0"
		 fit-margin-bottom="0"
		 inkscape:snap-to-guides="false"
		 inkscape:snap-grids="true"
		 inkscape:snap-nodes="false"
		 inkscape:object-nodes="true"
		 inkscape:object-paths="false"
		 inkscape:snap-bbox="true"
		 inkscape:snap-bbox-midpoints="false"
		 inkscape:bbox-nodes="true">
	
		<inkscape:grid
		   type="xygrid"
		   id="grid815"
		   spacingx="16"
		   spacingy="16"
		   empspacing="1"
		   dotted="true"
		   units="px"
		   originx="0"
		   originy="0"
		   enabled="true" />
	  </sodipodi:namedview>
	  <metadata
		 id="metadata5">
		<rdf:RDF>
		  <cc:Work
			 rdf:about="">
			<dc:format>image/svg+xml</dc:format>
			<dc:type
			   rdf:resource="http://purl.org/dc/dcmitype/StillImage" />
			<dc:title />
		  </cc:Work>
		</rdf:RDF>
	  </metadata>


<defs>
     <g id="svg_block_quant">
    <path 
	d="
	M 16,8 16,56
	M 16,56 80,56
	M 80,56 80,8
	M 80,8 16,8
	M 24,48 40,48
	M 40,48 40,32
	M 40,32 56,32
	M 56,32 56,16
	M 56,16 72,16
	" 
	style="fill:none;fill-opacity:1;stroke:#000000;stroke-width:2.5;stroke-linecap:round;stroke-linejoin:round;stroke-miterlimit:0;stroke-dasharray:none;stroke-dashoffset:0;stroke-opacity:1"
	/>
     <rect x="-32" y="-32" width="160" height="160" style="fill:none;stroke:none" />
     </g>
</defs>

<defs>
     <g id="svg_block_delay">
    <path 
	d="
	M 0,8 0,56
	M 0,56 64,56
	M 64,56 64,8
	M 64,8 0,8
	" 
	style="fill:none;fill-opacity:1;stroke:#000000;stroke-width:2.5;stroke-linecap:round;stroke-linejoin:round;stroke-miterlimit:0;stroke-dasharray:none;stroke-dashoffset:0;stroke-opacity:1"
	/>
	<text x="28" y="36" style="white-space:pre;dominant-baseline:middle;text-anchor:middle;font-size:26px;">z</text>
	<text x="44" y="24" style="white-space:pre;dominant-baseline:middle;text-anchor:middle;font-size:20px;">-1</text>
     <rect x="-32" y="-32" width="160" height="160" style="fill:none;stroke:none" />
     </g>
</defs>

<defs>
     <g id="svg_block_box">
    <path 
	d="
	M 16,-8 16,72
	M 16,72 112,72
	M 112,72 112,-8
	M 112,-8 16,-8
	" 
	style="fill:none;fill-opacity:1;stroke:#000000;stroke-width:2.5;stroke-linecap:round;stroke-linejoin:round;stroke-miterlimit:0;stroke-dasharray:none;stroke-dashoffset:0;stroke-opacity:1"
	/>
     <rect x="-32" y="-32" width="160" height="160" style="fill:none;stroke:none" />
     <!-- default text positions and size 
			"svg_block_box" WINDOW 3 64 32 Center 2
			"svg_block_box" SYMATTR Value text
		-->
     </g>
</defs>

<defs>
     <g id="svg_block_dac">
    <path 
	d="
	M 48,56 0,56
	M 0,56 0,8
	M 0,8 48,8
	M 80,32 48,8
	M 80,32 48,56
	" 
	style="fill:none;fill-opacity:1;stroke:#000000;stroke-width:2.5;stroke-linecap:round;stroke-linejoin:round;stroke-miterlimit:0;stroke-dasharray:none;stroke-dashoffset:0;stroke-opacity:1"
	/>
     <rect x="-32" y="-32" width="160" height="160" style="fill:none;stroke:none" />
     <!-- default text positions and size 
			"svg_block_dac" WINDOW 3 32 32 Center 2
			"svg_block_dac" SYMATTR Value DAC
		-->
     </g>
</defs>

<defs>
     <g id="svg_block_adc">
    <path 
	d="
	M 32,56 80,56
	M 80,56 80,8
	M 80,8 32,8
	M 0,32 32,8
	M 0,32 32,56
	" 
	style="fill:none;fill-opacity:1;stroke:#000000;stroke-width:2.5;stroke-linecap:round;stroke-linejoin:round;stroke-miterlimit:0;stroke-dasharray:none;stroke-dashoffset:0;stroke-opacity:1"
	/>
     <rect x="-32" y="-32" width="160" height="160" style="fill:none;stroke:none" />
     <!-- default text positions and size 
			"svg_block_adc" WINDOW 3 48 32 Center 2
			"svg_block_adc" SYMATTR Value ADC
		-->
     </g>
</defs>

<defs>
	<g id="svg_vcvs">
	<path 
	d="
	M -8,24 8,24
	M -8,40 8,40
	M 0,16 0,32
	M 0,64 0,56
	M 0,0 0,8
	M 0,8 24,32
	M 24,32 0,56
	M 0,56 -24,32
	M -24,32 0,8
	" 
	style="fill:none;fill-opacity:1;stroke:#000000;stroke-width:2.5;stroke-linecap:round;stroke-linejoin:round;stroke-miterlimit:0;stroke-dasharray:none;stroke-dashoffset:0;stroke-opacity:1"
	/>
	<!-- Below is an invisible box so that the symbol stays on grid 
	when in inkscape -->
	<rect x="-32" y="-32" width="160" height="160" style="fill:none;stroke:none" />
	<!-- default text positions and size
	"svg_vcvs" WINDOW 3 32 32 Left 2
	"svg_vcvs" SYMATTR Value KVx
	-->
	</g>
</defs>

<defs>
	<g id="svg_vccs">
	<path 
	d="
	M 0,48 4,36
	M 0,48 -4,36
	M -4,36 4,36
	M 0,16 0,36
	M 0,64 0,56
	M 0,0 0,8
	M 0,56 24,32
	M 24,32 0,8
	M 0,8 -24,32
	M -24,32 0,56
	" 
	style="fill:none;fill-opacity:1;stroke:#000000;stroke-width:2.5;stroke-linecap:round;stroke-linejoin:round;stroke-miterlimit:0;stroke-dasharray:none;stroke-dashoffset:0;stroke-opacity:1"
	/>
	<!-- Below is an invisible box so that the symbol stays on grid 
	when in inkscape -->
	<rect x="-32" y="-32" width="160" height="160" style="fill:none;stroke:none" />
	<!-- default text positions and size
	"svg_vccs" WINDOW 3 32 32 Left 2
	"svg_vccs" SYMATTR Value GmVx
	-->
	</g>
</defs>

<defs>
	<g id="svg_npn">
	<path 
	d="
	M 48,60 44,72
	M 64,72 48,60
	M 64,72 44,72
	M 46,66 24,56
	M 24,72 24,24
	M 24,40 64,24
	M 24,48 0,48
	M 64,72 64,80
	M 64,16 64,24
	" 
	style="fill:none;fill-opacity:1;stroke:#000000;stroke-width:2.5;stroke-linecap:round;stroke-linejoin:round;stroke-miterlimit:0;stroke-dasharray:none;stroke-dashoffset:0;stroke-opacity:1"
	/>
	<!-- Below is an invisible box so that the symbol stays on grid 
	when in inkscape -->
	<rect x="-32" y="-32" width="160" height="160" style="fill:none;stroke:none" />
	<!-- default text positions and size
	"svg_npn" WINDOW 0 70 48 Left 2
	"svg_npn" SYMATTR Prefix MN
	-->
	</g>
</defs>

<defs>
	<g id="svg_pnp">
	<path 
	d="
	M 40,28 44,40
	M 24,40 40,28
	M 24,40 44,40
	M 64,72 24,56
	M 24,72 24,24
	M 42,34 64,24
	M 24,48 0,48
	M 64,72 64,80
	M 64,16 64,24
	" 
	style="fill:none;fill-opacity:1;stroke:#000000;stroke-width:2.5;stroke-linecap:round;stroke-linejoin:round;stroke-miterlimit:0;stroke-dasharray:none;stroke-dashoffset:0;stroke-opacity:1"
	/>
	<!-- Below is an invisible box so that the symbol stays on grid 
	when in inkscape -->
	<rect x="-32" y="-32" width="160" height="160" style="fill:none;stroke:none" />
	<!-- default text positions and size
	"svg_pnp" WINDOW 0 70 48 Left 2
	"svg_pnp" SYMATTR Prefix MN
	-->
	</g>
</defs>

<defs>
	<g id="svg_diode">
	<path 
	d="
	M 16,0 16,20
	M 16,44 16,64
	"
	style="fill:none;fill-opacity:1;stroke:#000000;stroke-width:2.5;stroke-linecap:round;stroke-linejoin:round;stroke-miterlimit:0;stroke-dasharray:none;stroke-dashoffset:0;stroke-opacity:1"
	/>
	<path 
	d="
	M 0,44 32,44
	M 0,20 32,20
	M 32,20 16,44
	M 0,20 16,44
	"
	style="fill:none;fill-opacity:1;stroke:#000000;stroke-width:4;stroke-linecap:round;stroke-linejoin:round;stroke-miterlimit:0;stroke-dasharray:none;stroke-dashoffset:0;stroke-opacity:1"
	/>
	<rect x="-32" y="-32" width="160" height="160" style="fill:none;stroke:none" />
	<!-- default text positions and size 
		"svg_diode" WINDOW 0 40 20 Left 2
		"svg_diode" WINDOW 3 40 44 Left 2
		"svg_diode" SYMATTR Value D
		"svg_diode" SYMATTR Prefix D
	-->
	</g>
</defs>

<defs>
	<g id="svg_voltage">
	<circle cx="0" cy="32" r="24" style="stroke:black; stroke-width:4;fill:white"/>
	<path 
	d="
	M -8,24 8,24
	M -8,44 8,44
	M 0,16 0,32
	M 0,64 0,56
	M 0,0 0,8
	"
	style="fill:none;fill-opacity:1;stroke:#000000;stroke-width:2.5;stroke-linecap:round;stroke-linejoin:round;stroke-miterlimit:0;stroke-dasharray:none;stroke-dashoffset:0;stroke-opacity:1"
	/>
	<rect x="-32" y="-32" width="160" height="160" style="fill:none;stroke:none" />
	<!-- default text positions and size 
		"svg_voltage" WINDOW 0 -36 20 Right 2
		"svg_voltage" WINDOW 3 -36 44 Right 2
		"svg_voltage" SYMATTR Value I
		"svg_voltage" SYMATTR Prefix I
	-->
	</g>
</defs>

<defs>
	<g id="svg_voltage2">
	<circle cx="0" cy="32" r="24" style="stroke:black; stroke-width:4;fill:white"/>
	<path 
	d="
	M 0,64 0,56
	M 0,0 0,8
	"
	style="fill:none;fill-opacity:1;stroke:#000000;stroke-width:2.5;stroke-linecap:round;stroke-linejoin:round;stroke-miterlimit:0;stroke-dasharray:none;stroke-dashoffset:0;stroke-opacity:1"
	/>
	<g transform = "translate(-16, 32)">
	<path 
	d="M 0,0 C 1.23347,-2.9265965 2.4669399,-5.8412165 3.7004097,-8.0837765 4.9338798,-10.326335 6.1673494,-11.875859 7.4008195,-12.385062 8.6342896,-12.894267 9.8677596,-12.353654 11.10123,-10.891241 12.3347,-9.4288287 13.568169,-7.0510391 14.80164,-4.3012874 16.03511,-1.5515357 17.26858,1.550837 18.502049,4.3012875 19.73552,7.0517382 20.968989,9.4270602 22.20246,10.891243 23.435929,12.355426 24.669398,12.892256 25.902869,12.385064 27.136339,11.877872 28.369809,10.325023 29.603279,8.0837762 30.836749,5.8425298 32.070219,2.9265966 33.303687,0"
	style="fill:none;fill-opacity:1;stroke:#000000;stroke-width:2.5;stroke-linecap:round;stroke-linejoin:round;stroke-miterlimit:0;stroke-dasharray:none;stroke-dashoffset:0;stroke-opacity:1"
	/>
	</g>
	<rect x="-32" y="-32" width="160" height="160" style="fill:none;stroke:none" />
	<!-- default text positions and size 
		"svg_voltage2" WINDOW 0 -36 20 Right 2
		"svg_voltage2" WINDOW 3 -36 44 Right 2
		"svg_voltage2" SYMATTR Value I
		"svg_voltage2" SYMATTR Prefix I
	-->
	</g>
</defs>

<defs>
	<g id="svg_current">
	<circle cx="0" cy="32" r="24" style="stroke:black; stroke-width:4;fill:white"/>
	<path 
	d="
	M 0,48 4,36
	M 0,48 -4,36
	M -4,36 4,36
	M 0,16 0,36
	M 0,64 0,56
	M 0,0 0,8
	"
	style="fill:none;fill-opacity:1;stroke:#000000;stroke-width:2.5;stroke-linecap:round;stroke-linejoin:round;stroke-miterlimit:0;stroke-dasharray:none;stroke-dashoffset:0;stroke-opacity:1"
	/>
	<rect x="-32" y="-32" width="160" height="160" style="fill:none;stroke:none" />
	<!-- default text positions and size 
		"svg_current" WINDOW 0 -36 20 Right 2
		"svg_current" WINDOW 3 -36 44 Right 2
		"svg_current" SYMATTR Value I
		"svg_current" SYMATTR Prefix I
	-->
	</g>
</defs>

<defs>
     <g id="svg_opamp">
     <path 
     d="
	M -28,48 -20,48
	M -28,80 -20,80
	M -24,84 -24,76
"
     style="fill:none;fill-opacity:1;stroke:#000000;stroke-width:2.5;stroke-linecap:round;stroke-linejoin:round;stroke-miterlimit:0;stroke-dasharray:none;stroke-dashoffset:0;stroke-opacity:1"
     /> 
     <path 
     d="
    M -32,32 32,64
	M -32,96 32,64
	M -32,32 -32,96
"
     style="fill:none;fill-opacity:1;stroke:#000000;stroke-width:4;stroke-linecap:round;stroke-linejoin:round;stroke-miterlimit:0;stroke-dasharray:none;stroke-dashoffset:0;stroke-opacity:1"
     />      
     <rect x="-48" y="-48" width="208" height="208" style="fill:none;stroke:none" />
     </g>
</defs>

<defs>
     <g id="svg_block_arrow2">
     <path
    d="
	M 0,0 -17,-13
	M -17,13 0,0
	M 0,0 -16,0
    "
    style="fill:none;fill-opacity:1;stroke:#000000;stroke-width:2.5;stroke-linecap:round;stroke-linejoin:round;stroke-miterlimit:0;stroke-dasharray:none;stroke-dashoffset:0;stroke-opacity:1"
     />
     <rect x="-32" y="-32" width="160" height="160" style="fill:none;stroke:none" />
     </g>
</defs>

<defs>
     <g id="svg_block_arrow">
      <polygon points="-16,-5 -16,5 0,0" style="fill:black;fill-opacity:1;stroke:black;stroke-width:2.5;stroke-linecap:round;stroke-linejoin:round;stroke-miterlimit:0;stroke-dasharray:none;stroke-dashoffset:0;stroke-opacity:1" />
     <rect x="-32" y="-32" width="160" height="160" style="fill:none;stroke:none" />
     </g>
</defs>

<defs>
     <g id="svg_meas_imped">
     <path 
     d="
     M 32,0 32,36
	M 32,0 40,16
	M 32,0 24,16
	M 32,36 4,36
"
     style="fill:none;fill-opacity:1;stroke:#000000;stroke-width:2.5;stroke-linecap:round;stroke-linejoin:round;stroke-miterlimit:0;stroke-dasharray:none;stroke-dashoffset:0;stroke-opacity:1"
     />      
     <rect x="-32" y="-32" width="160" height="160" style="fill:none;stroke:none" />
     </g>
</defs>

<defs>
     <g id="svg_meas_I">
     <path 
     d="M 32,0 32,64
     M 32,0 40,16
     M 32,0 24,16"
     style="fill:none;fill-opacity:1;stroke:#000000;stroke-width:2.5;stroke-linecap:round;stroke-linejoin:round;stroke-miterlimit:0;stroke-dasharray:none;stroke-dashoffset:0;stroke-opacity:1"
     />      
     <rect x="-32" y="-32" width="160" height="160" style="fill:none;stroke:none" />
     </g>
</defs>

<defs>
     <g id="svg_meas_V">
     <path 
     d="
     M 16,0 32,0
     M 24,-8 24,8
     M 32,64 16,64
     "
     style="fill:none;fill-opacity:1;stroke:#000000;stroke-width:2.5;stroke-linecap:round;stroke-linejoin:round;stroke-miterlimit:0;stroke-dasharray:none;stroke-dashoffset:0;stroke-opacity:1"
     />      
     <rect x="-32" y="-32" width="160" height="160" style="fill:none;stroke:none" />
     </g>
</defs>

<defs>
     <g id="svg_meas_V2">
     <path 
     d="
     M 24,0 40,0
     M 32,-8 32,8
     M -40,0 -24,0
     "
     style="fill:none;fill-opacity:1;stroke:#000000;stroke-width:2.5;stroke-linecap:round;stroke-linejoin:round;stroke-miterlimit:0;stroke-dasharray:none;stroke-dashoffset:0;stroke-opacity:1"
     />      
     <rect x="-32" y="-32" width="160" height="160" style="fill:none;stroke:none" />
     </g>
</defs>

<defs>
     <g id="svg_meas_V3">
     <path 
     d="
     M 16,0 32,0
     M 24,-8 24,8
     M 64,32 80,32
     "
     style="fill:none;fill-opacity:1;stroke:#000000;stroke-width:2.5;stroke-linecap:round;stroke-linejoin:round;stroke-miterlimit:0;stroke-dasharray:none;stroke-dashoffset:0;stroke-opacity:1"
     />      
     <rect x="-32" y="-32" width="160" height="160" style="fill:none;stroke:none" />
     </g>
</defs>

<defs>
     <g id="svg_meas_plus">
     <path 
     d="
     M 16,0 32,0
     M 24,-8 24,8
     "
     style="fill:none;fill-opacity:1;stroke:#000000;stroke-width:2.5;stroke-linecap:round;stroke-linejoin:round;stroke-miterlimit:0;stroke-dasharray:none;stroke-dashoffset:0;stroke-opacity:1"
     />      
     <rect x="-32" y="-32" width="160" height="160" style="fill:none;stroke:none" />
     </g>
</defs>

<defs>
     <g id="svg_meas_minus">
     <path 
     d="
     M 16,0 32,0
     "
     style="fill:none;fill-opacity:1;stroke:#000000;stroke-width:2.5;stroke-linecap:round;stroke-linejoin:round;stroke-miterlimit:0;stroke-dasharray:none;stroke-dashoffset:0;stroke-opacity:1"
     />      
     <rect x="-32" y="-32" width="160" height="160" style="fill:none;stroke:none" />
     </g>
</defs>

<defs>
     <g id="svg_block_amp">
      <polygon points="16,-16 112,32 16,80" style="fill:none;fill-opacity:1;stroke:black;stroke-width:2.5;stroke-linecap:round;stroke-linejoin:round;stroke-miterlimit:0;stroke-dasharray:none;stroke-dashoffset:0;stroke-opacity:1" />
     <rect x="-32" y="-32" width="160" height="160" style="fill:none;stroke:none" />
     <!-- default text positions and size 
			"svg_block_amp" WINDOW 3 48 32 Center 2
			"svg_block_amp" SYMATTR Value text
		-->
     </g>
</defs>

<defs>
     <g id="svg_block_sum">
     <circle cx="0" cy="16" r="16" style="stroke:black; stroke-width:2.5;fill:white"/>
      <path 
	d="M 0,8 0,24
	M 8,16 -8,16"
     style="fill:none;fill-opacity:1;stroke:#000000;stroke-width:2.5;stroke-linecap:round;stroke-linejoin:round;stroke-miterlimit:0;stroke-dasharray:none;stroke-dashoffset:0;stroke-opacity:1"
     />
     <rect x="-32" y="-32" width="160" height="160" style="fill:none;stroke:none" />
     </g>
</defs>

<defs>
	<g id="svg_supply">
      <polygon points="-6,0 0,-15 6,0" style="fill:black;fill-opacity:1;stroke:black;stroke-width:2.5;stroke-linecap:round;stroke-linejoin:round;stroke-miterlimit:0;stroke-dasharray:none;stroke-dashoffset:0;stroke-opacity:1" />
     <rect x="-32" y="-32" width="160" height="160" style="fill:none;stroke:none" />
     </g>
</defs>
<defs>
    <g id="svg_port">
      <circle cx="0" cy="0" r="6" style="stroke:black; fill:black"/>
      <circle cx="0" cy="0" r="3" style="stroke:white; fill:white"/>
     <rect x="-32" y="-32" width="160" height="160" style="fill:none;stroke:none" />
     </g>
</defs>
<defs>
    <g id="svg_dot">
      <circle cx="0" cy="0" r="5" style="stroke:#000000; fill:#000000"/>
     <rect x="-32" y="-32" width="160" height="160" style="fill:none;stroke:none" />
     </g>
</defs>
<defs>
    <g id="svg_jumpCirc">
      <circle cx="0" cy="0" r="6" style="stroke:#000000;stroke-width:2.5;fill:#ffffff"/>
      <rect x="-8" y="1.25" width="16" height="7" style="fill:#ffffff;stroke:none"/>
     <rect x="-32" y="-32" width="160" height="160" style="fill:none;stroke:none" />
     </g>
</defs>
<defs>
    <g id="svg_jumpLine">
      <path 
     d="M -12,0 12,0"
     style="fill:none;fill-opacity:1;stroke:#000000;stroke-width:2.5;stroke-linecap:round;stroke-linejoin:round;stroke-miterlimit:0;stroke-dasharray:none;stroke-dashoffset:0;stroke-opacity:1"
     />
     <rect x="-32" y="-32" width="160" height="160" style="fill:none;stroke:none" />
     </g>
</defs>
<defs>
     <g id="svg_gnd">
      <path 
     d="M 0,0 0,8
     M -14,8 14,8
     M -8,14 8,14
     M -2,20 2,20"
     style="fill:none;fill-opacity:1;stroke:#000000;stroke-width:2.5;stroke-linecap:round;stroke-linejoin:round;stroke-miterlimit:0;stroke-dasharray:none;stroke-dashoffset:0;stroke-opacity:1"
     />
     <rect x="-32" y="-32" width="160" height="160" style="fill:none;stroke:none" />
     </g>
</defs>
<defs>
	  <g id="svg_res">
		  <path 
		 d="M 16,0 32,5
		 M 32,5 0,16
		 M 0,16 32,27
		 M 32,27 0,37
		 M 0,37 32,48
		 M 32,48 0,59
		 M 0,59 16,64"
		 style="fill:none;fill-opacity:1;stroke:#000000;stroke-width:4;stroke-linecap:round;stroke-linejoin:round;stroke-miterlimit:0;stroke-dasharray:none;stroke-dashoffset:0;stroke-opacity:1"
		 />
		 <rect x="-32" y="-32" width="160" height="160" style="fill:none;stroke:none" />
		 <!-- default text positions and size 
		 	"svg_res" WINDOW 0 40 18 Left 2 
			"svg_res" WINDOW 3 40 46 Left 2
			"svg_res" SYMATTR Value R
			"svg_res" SYMATTR Prefix R
		-->
	  </g>
</defs>

<defs>
	  <g id="svg_ind">
	  	<path 
		 d="
		 M 16,0 16,8 
		 M 16,56 16,64
		 "
		 style="fill:none;fill-opacity:1;stroke:#000000;stroke-width:2.5;stroke-linecap:round;stroke-linejoin:round;stroke-miterlimit:0;stroke-dasharray:none;stroke-dashoffset:0;stroke-opacity:1"
		 />
		 <path 
		 d="
		 M 16,8 C 44,8 44,24 16,24
		 M 16,24 C 44,24 44,40 16,40
		 M 16,40 C 44,40 44,56 16,56 
		 "
		 style="fill:none;fill-opacity:1;stroke:#000000;stroke-width:4;stroke-linecap:round;stroke-linejoin:round;stroke-miterlimit:0;stroke-dasharray:none;stroke-dashoffset:0;stroke-opacity:1"
		 />
		 <rect x="-32" y="-32" width="160" height="160" style="fill:none;stroke:none" />
		 <!-- default text positions and size 
		 	"svg_ind" WINDOW 0 40 18 Left 2
			"svg_ind" WINDOW 3 40 46 Left 2
			"svg_ind" SYMATTR Value L
			"svg_ind" SYMATTR Prefix L
		-->
	  </g>
</defs>

<defs>
	  <g id="svg_cap">
		  <path 
		 d="M 16,37 16,64
		 M 16,27 16,0" 
		 style="fill:none;fill-opacity:1;stroke:#000000;stroke-width:2.5;stroke-linecap:round;stroke-linejoin:round;stroke-miterlimit:0;stroke-dasharray:none;stroke-dashoffset:0;stroke-opacity:1"
		   />
		   <path 
		 d="M -4,27 36,27
		 M -4,37 36,37" 
		 style="fill:none;fill-opacity:1;stroke:#000000;stroke-width:4;stroke-linecap:round;stroke-linejoin:round;stroke-miterlimit:0;stroke-dasharray:none;stroke-dashoffset:0;stroke-opacity:1"
		   />
		   <rect x="-32" y="-32" width="160" height="160" style="fill:none;stroke:none" />
		   <!-- default text positions and size 
		 	"svg_cap" WINDOW 0 44 18 Left 2
			"svg_cap" WINDOW 3 44 46 Left 2
			"svg_cap" SYMATTR Value C
			"svg_cap" SYMATTR Prefix C
		   -->
	  </g>
	</defs>
	<defs>
	  <g id="svg_nmos">
		  <path 
		 d="M 0,48 16,48
		 M 64,28 28,28
		 M 64,68 28,68
		 M 64,68 64,80
		 M 64,28 64,16" 
		 style="fill:none;fill-opacity:1;stroke:#000000;stroke-width:2.5;stroke-linecap:round;stroke-linejoin:round;stroke-miterlimit:0;stroke-dasharray:none;stroke-dashoffset:0;stroke-opacity:1"
		   />
		   <path 
		 d="M 16,70 16,24
		 M 28,81 28,15" 
		 style="fill:none;fill-opacity:1;stroke:#000000;stroke-width:6;stroke-linecap:round;stroke-linejoin:round;stroke-miterlimit:0;stroke-dasharray:none;stroke-dashoffset:0;stroke-opacity:1"
		   />
		   <polygon points="47,59 47,77 60,68" style="fill:#000000;fill-opacity:1;stroke:#000000;stroke-width:2.5;stroke-linecap:round;stroke-linejoin:round;stroke-miterlimit:0;stroke-dasharray:none;stroke-dashoffset:0;stroke-opacity:1" />
		   <!-- Below is an invisible box so that the symbol stays on grid 
		   when in inkscape -->
		   <rect x="-32" y="-32" width="160" height="160" style="fill:none;stroke:none" />
		   <!-- default text positions and size
		 	"svg_nmos" WINDOW 0 70 48 Left 2
		 	"svg_nmos" SYMATTR Prefix MN
		   -->
	  </g>
	</defs>
	<defs>
	  <g id="svg_pmos">
		  <path 
		 d="M 0,48 16,48
		 M 64,28 28,28
		 M 64,68 28,68
		 M 64,68 64,80
		 M 64,28 64,16" 
		 style="fill:none;fill-opacity:1;stroke:#000000;stroke-width:2.5;stroke-linecap:round;stroke-linejoin:round;stroke-miterlimit:0;stroke-dasharray:none;stroke-dashoffset:0;stroke-opacity:1"
		   />
		   <path 
		 d="M 16,70 16,24
		 M 28,81 28,15" 
		 style="fill:none;fill-opacity:1;stroke:#000000;stroke-width:6;stroke-linecap:round;stroke-linejoin:round;stroke-miterlimit:0;stroke-dasharray:none;stroke-dashoffset:0;stroke-opacity:1"
		   />
		   <polygon points="45,19 45,37 32,28" style="fill:#000000;fill-opacity:1;stroke:#000000;stroke-width:2.5;stroke-linecap:round;stroke-linejoin:round;stroke-miterlimit:0;stroke-dasharray:none;stroke-dashoffset:0;stroke-opacity:1" />
		   <rect x="-32" y="-32" width="160" height="160" style="fill:none;stroke:none" />
		   <!-- default text positions and size
		 	"svg_pmos" WINDOW 0 70 48 Left 2
		 	"svg_pmos" SYMATTR Prefix MP
		   -->
	  </g>
	</defs>
	<defs>
	  <g id="svg_nmos4">
		  <path 
		 d="M 0,48 16,48
		 M 64,28 28,28
		 M 64,68 28,68
		 M 64,68 64,80
		 M 64,28 64,16
		 M 64,48 28,48
		 " 
		 style="fill:none;fill-opacity:1;stroke:#000000;stroke-width:2.5;stroke-linecap:round;stroke-linejoin:round;stroke-miterlimit:0;stroke-dasharray:none;stroke-dashoffset:0;stroke-opacity:1"
		   />
		   <path 
		 d="M 16,70 16,24
		 M 28,81 28,15" 
		 style="fill:none;fill-opacity:1;stroke:#000000;stroke-width:6;stroke-linecap:round;stroke-linejoin:round;stroke-miterlimit:0;stroke-dasharray:none;stroke-dashoffset:0;stroke-opacity:1"
		   />
		   <polygon points="47,59 47,77 60,68" style="fill:#000000;fill-opacity:1;stroke:#000000;stroke-width:2.5;stroke-linecap:round;stroke-linejoin:round;stroke-miterlimit:0;stroke-dasharray:none;stroke-dashoffset:0;stroke-opacity:1" />
		   <!-- Below is an invisible box so that the symbol stays on grid 
		   when in inkscape -->
		   <rect x="-32" y="-32" width="160" height="160" style="fill:none;stroke:none" />
		   <!-- default text positions and size
		 	"svg_nmos4" WINDOW 0 70 32 Left 2
		 	"svg_nmos4" SYMATTR Prefix MN
		   -->
	  </g>
	</defs>
	<defs>
	  <g id="svg_pmos4">
		  <path 
		 d="M 0,48 16,48
		 M 64,28 28,28
		 M 64,68 28,68
		 M 64,68 64,80
		 M 64,28 64,16
		 M 64,48 28,48
		 " 
		 style="fill:none;fill-opacity:1;stroke:#000000;stroke-width:2.5;stroke-linecap:round;stroke-linejoin:round;stroke-miterlimit:0;stroke-dasharray:none;stroke-dashoffset:0;stroke-opacity:1"
		   />
		   <path 
		 d="M 16,70 16,24
		 M 28,81 28,15" 
		 style="fill:none;fill-opacity:1;stroke:#000000;stroke-width:6;stroke-linecap:round;stroke-linejoin:round;stroke-miterlimit:0;stroke-dasharray:none;stroke-dashoffset:0;stroke-opacity:1"
		   />
		   <polygon points="45,19 45,37 32,28" style="fill:#000000;fill-opacity:1;stroke:#000000;stroke-width:2.5;stroke-linecap:round;stroke-linejoin:round;stroke-miterlimit:0;stroke-dasharray:none;stroke-dashoffset:0;stroke-opacity:1" />
		   <rect x="-32" y="-32" width="160" height="160" style="fill:none;stroke:none" />
		   <!-- default text positions and size
		 	"svg_pmos4" WINDOW 0 70 70 Left 2
		 	"svg_pmos4" SYMATTR Prefix MP
		   -->
	  </g>
	</defs>

<!-- 
************  END OF SYMBOL DEFINITIONS *************
-->





<!-- 
************  test symbols below *************
-->
<g inkscape:label="Layer 1" inkscape:groupmode="layer" id="layer1">

<g >
<use xlink:href="#svg_block_sum" x="0" y="100" transform = "rotate(0 128 112)" />
</g>
<g >
<use xlink:href="#svg_pmos" x="100" y="100" transform = "rotate(0 128 112)" />
</g>

</g>
</svg>